<?xml version="1.0" standalone="no"?>
<!DOCTYPE svg PUBLIC "-//W3C//DTD SVG 20010904//EN"
 "http://www.w3.org/TR/2001/REC-SVG-20010904/DTD/svg10.dtd">
<svg version="1.0" xmlns="http://www.w3.org/2000/svg"
 width="600.000000pt" height="480.000000pt" viewBox="0 0 600.000000 480.000000"
 preserveAspectRatio="xMidYMid meet">

<g transform="translate(0.000000,480.000000) scale(0.100000,-0.100000)"
fill="#000000" stroke="none">
<path d="M0 2400 l0 -2400 3000 0 3000 0 0 2400 0 2400 -3000 0 -3000 0 0
-2400z m3110 1471 c32 -5 10 -8 -80 -8 -69 0 -152 -6 -185 -12 -269 -54 -501
-207 -648 -428 -40 -60 -49 -68 -76 -68 -17 0 -31 3 -31 7 0 3 22 39 49 80
149 222 399 383 661 427 67 11 249 12 310 2z m345 -422 c91 -17 123 -39 242
-164 60 -63 115 -115 121 -115 26 0 125 -44 154 -68 28 -23 98 -150 98 -177 0
-6 12 -16 28 -22 25 -10 25 -11 5 -12 -22 -1 -23 -5 -23 -73 0 -40 -7 -111
-15 -157 -9 -54 -12 -110 -8 -153 l6 -68 -35 -14 c-100 -42 -343 -70 -390 -45
-15 8 -101 6 -329 -7 -296 -17 -322 -17 -618 0 -228 13 -314 15 -329 7 -35
-18 -161 -12 -274 13 -154 35 -152 34 -144 115 3 42 0 98 -9 152 -8 46 -15
117 -15 157 0 68 -1 72 -22 73 -21 1 -21 2 5 12 15 6 27 16 27 22 0 27 70 154
98 177 29 24 128 68 154 68 6 0 61 52 121 115 106 112 147 143 212 160 94 24
814 28 940 4z m-1294 -205 c11 -26 18 -48 16 -50 -8 -8 -217 52 -214 61 5 14
82 33 135 34 42 1 43 0 63 -45z m1828 33 c25 -7 46 -17 48 -22 3 -9 -206 -69
-214 -61 -2 2 5 24 16 50 20 45 21 46 63 45 24 0 63 -6 87 -12z m-179 -1015
c0 -5 -35 -42 -77 -84 -178 -173 -396 -270 -638 -285 -105 -6 -241 8 -317 33
l-43 14 40 -6 c346 -55 647 36 895 272 30 29 66 54 80 57 43 8 60 7 60 -1z
m-862 -648 c43 -32 62 -80 62 -157 0 -83 -19 -129 -66 -158 -30 -18 -47 -20
-133 -17 -90 3 -102 5 -127 28 -38 36 -54 80 -54 152 0 82 22 126 81 156 38
20 55 23 127 19 62 -2 89 -8 110 -23z m-1100 -161 l2 -173 -30 0 c-29 0 -30 2
-30 45 l0 45 -115 0 -115 0 0 -45 c0 -43 -1 -45 -30 -45 l-30 0 0 108 c0 121
17 175 66 209 44 31 51 32 169 30 l110 -2 3 -172z m112 69 c0 -121 9 -144 66
-168 18 -8 63 -14 99 -14 l65 0 0 145 0 145 30 0 30 0 0 -164 c0 -133 -3 -166
-15 -176 -10 -9 -46 -11 -118 -8 -92 3 -109 6 -144 30 -60 40 -73 76 -73 207
l0 111 30 0 30 0 0 -108z m660 78 l0 -30 -70 0 -70 0 0 -145 0 -145 -30 0 -30
0 0 145 0 145 -70 0 -70 0 0 30 0 30 170 0 170 0 0 -30z m750 0 l0 -29 -127
-3 -128 -3 0 -110 0 -110 128 -3 127 -3 0 -29 0 -30 -131 0 -131 0 -29 29
c-29 29 -29 30 -29 151 0 115 1 122 25 145 23 24 29 25 160 25 l135 0 0 -30z
m378 -147 l2 -173 -30 0 c-29 0 -30 2 -30 45 l0 45 -115 0 -115 0 0 -45 c0
-44 -1 -45 -31 -45 l-31 0 3 118 c4 102 7 122 27 155 40 63 79 77 207 74 l110
-2 3 -172z m391 151 c25 -31 27 -89 7 -139 -14 -33 -39 -52 -83 -64 -22 -6
-20 -10 42 -64 l67 -57 -47 0 c-43 0 -53 5 -117 60 -38 33 -78 60 -89 60 -14
0 -19 7 -19 30 l0 30 84 0 c76 0 86 2 100 22 9 12 16 37 16 55 l0 33 -115 0
-115 0 0 -145 0 -145 -30 0 -30 0 0 168 c0 93 3 172 7 175 3 4 73 7 154 7 147
0 148 0 168 -26z m381 -4 l0 -30 -130 0 -130 0 0 -109 c0 -90 3 -110 16 -115
9 -3 67 -6 130 -6 l114 0 0 -30 0 -30 -131 0 -131 0 -29 29 -29 29 0 140 c0
76 3 142 7 145 3 4 75 7 160 7 l153 0 0 -30z m-30 -140 l0 -30 -100 0 -100 0
0 30 0 30 100 0 100 0 0 -30z m-2217 -327 c10 -6 9 -43 -2 -43 -5 0 -14 7 -21
15 -16 20 -54 19 -71 -1 -17 -21 3 -34 52 -34 20 0 42 -7 49 -14 18 -23 8 -59
-22 -75 -37 -21 -102 -5 -106 27 -4 25 13 30 22 6 8 -22 80 -15 84 7 2 13 -8
19 -48 24 -54 7 -73 28 -62 67 7 29 86 42 125 21z m245 -11 c18 -23 -2 -39
-23 -18 -28 28 -84 14 -72 -18 4 -11 19 -16 45 -16 44 0 65 -18 60 -52 -5 -35
-48 -54 -95 -43 -28 8 -39 16 -41 33 -4 26 10 29 28 6 17 -20 74 -15 78 7 2
12 -10 18 -50 25 -48 8 -53 12 -56 37 -2 16 2 34 8 42 23 27 95 26 118 -3z
m711 3 c0 -5 -14 -9 -30 -7 -48 4 -69 -13 -69 -57 0 -51 18 -65 75 -57 51 8
62 -8 18 -25 -38 -14 -89 -3 -108 24 -19 28 -19 86 0 114 21 31 115 37 114 8z
m859 -3 c18 -23 -2 -39 -23 -18 -28 28 -84 14 -72 -18 4 -11 19 -16 44 -16 52
0 65 -11 61 -50 -2 -26 -9 -35 -31 -43 -41 -13 -95 -1 -102 24 -9 29 1 35 24
15 23 -21 75 -18 79 5 2 12 -8 18 -40 23 -23 4 -48 12 -55 18 -17 13 -17 52 0
66 30 24 93 21 115 -6z m-2040 6 c-3 -7 -25 -14 -51 -16 -39 -3 -47 -6 -47
-23 0 -15 7 -19 35 -19 24 0 35 -5 35 -15 0 -10 -11 -15 -35 -15 -28 0 -35 -4
-35 -20 0 -17 7 -20 51 -20 36 0 49 -4 47 -12 -3 -9 -25 -13 -64 -13 l-59 0
-3 83 -3 82 66 0 c49 0 66 -3 63 -12z m702 -3 c0 -11 -12 -15 -45 -15 -38 0
-45 -3 -45 -20 0 -16 7 -20 35 -20 24 0 35 -5 35 -15 0 -10 -11 -15 -35 -15
-28 0 -35 -4 -35 -20 0 -17 7 -20 45 -20 33 0 45 -4 45 -15 0 -12 -13 -15 -60
-15 l-60 0 0 85 0 85 60 0 c47 0 60 -3 60 -15z m177 -42 l38 -57 3 57 c2 42 7
57 17 57 12 0 15 -18 15 -86 0 -76 -2 -85 -17 -82 -10 2 -36 30 -58 62 l-40
58 -5 -58 c-3 -33 -10 -59 -17 -62 -10 -3 -13 18 -13 82 0 79 2 86 20 86 13 0
33 -19 57 -57z m453 -29 c0 -64 -3 -85 -12 -82 -9 3 -14 32 -16 86 -2 68 0 82
13 82 12 0 15 -15 15 -86z m227 6 c17 -44 27 -83 22 -86 -13 -7 -29 5 -29 22
0 24 -69 18 -90 -8 -29 -36 -35 -14 -12 44 12 29 26 65 31 81 19 52 45 35 78
-53z m163 10 l0 -70 45 0 c33 0 45 -4 45 -15 0 -12 -13 -15 -60 -15 l-60 0 0
85 c0 69 3 85 15 85 12 0 15 -14 15 -70z"/>
<path d="M2677 3419 c-87 -4 -174 -13 -194 -20 -24 -8 -68 -44 -130 -107 -51
-53 -93 -99 -93 -103 0 -5 15 -5 33 -1 17 4 336 7 707 7 371 0 690 -3 708 -7
17 -4 32 -4 32 0 0 18 -181 194 -214 207 -68 29 -507 41 -849 24z m538 -28
l120 -6 -70 -8 c-227 -26 -610 -87 -700 -112 -40 -11 -186 -35 -213 -35 -18 0
127 131 156 141 58 19 487 31 707 20z"/>
<path d="M1993 2989 c-18 -18 -16 -66 3 -73 27 -10 36 -7 30 10 -4 9 -4 26 0
37 6 19 7 19 16 3 9 -16 11 -16 30 1 20 18 21 18 10 -3 -10 -19 -8 -23 10 -27
24 -7 48 8 48 28 0 22 -129 43 -147 24z"/>
<path d="M3920 2990 c-8 -5 -25 -10 -37 -10 -13 0 -23 -6 -23 -14 0 -21 24
-36 48 -29 18 4 20 8 10 27 -11 21 -10 21 10 3 19 -17 21 -17 30 -1 9 16 10
16 16 -3 4 -11 4 -28 0 -37 -6 -17 3 -20 30 -10 19 7 21 55 4 72 -14 14 -67
16 -88 2z"/>
<path d="M2209 2930 c13 -11 30 -20 39 -20 19 0 15 3 -28 24 l-35 17 24 -21z"/>
<path d="M3770 2930 c-20 -11 -28 -19 -19 -20 9 0 27 9 40 20 30 24 24 24 -21
0z"/>
<path d="M2493 2903 c-24 -9 -13 -29 51 -90 43 -41 79 -66 108 -75 31 -9 127
-13 348 -13 221 0 317 4 348 13 29 9 65 34 108 75 66 64 75 81 48 91 -19 7
-993 7 -1011 -1z m757 -53 c-52 -4 -165 -8 -250 -8 -85 0 -198 4 -250 8 -62 4
26 7 250 7 224 0 312 -3 250 -7z m40 -40 c-30 -5 -161 -8 -290 -8 -129 0 -260
3 -290 8 -32 4 91 7 290 7 199 0 322 -3 290 -7z m-157 -50 c-73 -4 -193 -4
-265 0 -111 6 -89 7 132 7 221 0 243 -1 133 -7z"/>
<path d="M2278 2894 c-16 -16 -6 -26 57 -54 36 -16 65 -34 65 -41 0 -7 -7 -8
-17 -4 -77 31 -128 44 -137 35 -14 -14 -13 -14 97 -49 109 -35 139 -38 157
-16 16 19 -1 39 -74 89 -50 35 -132 57 -148 40z"/>
<path d="M3638 2890 c-29 -9 -116 -69 -138 -95 -17 -20 3 -45 36 -45 22 0 213
57 223 66 3 3 0 9 -6 15 -7 7 -32 2 -79 -15 -37 -14 -71 -23 -74 -20 -8 9 28
31 81 50 34 13 49 23 47 34 -4 17 -50 23 -90 10z"/>
<path d="M2245 2880 c3 -5 8 -10 11 -10 2 0 4 5 4 10 0 6 -5 10 -11 10 -5 0
-7 -4 -4 -10z"/>
<path d="M3740 2879 c0 -5 5 -7 10 -4 6 3 10 8 10 11 0 2 -4 4 -10 4 -5 0 -10
-5 -10 -11z"/>
<path d="M2190 2846 c0 -18 31 -29 44 -16 8 8 7 14 -4 20 -22 14 -40 12 -40
-4z"/>
<path d="M3770 2850 c-11 -6 -12 -12 -4 -20 13 -13 44 -2 44 16 0 16 -18 18
-40 4z"/>
<path d="M2003 2833 c3 -5 -4 -9 -16 -9 -21 1 -22 -2 -18 -69 2 -38 11 -110
20 -159 l17 -89 70 -28 c96 -38 134 -44 159 -25 15 11 17 19 10 29 -5 8 -31
42 -57 77 -27 34 -48 67 -48 72 0 6 41 -27 92 -73 50 -46 88 -75 84 -64 -4 11
-10 45 -13 75 -5 66 16 114 64 146 l32 21 -72 22 c-40 11 -90 22 -112 24 -35
2 -40 -1 -43 -20 -5 -31 -22 -29 -22 2 0 15 -6 25 -15 25 -8 0 -31 9 -52 19
-48 24 -87 36 -80 24z"/>
<path d="M3955 2828 c-16 -6 -39 -17 -50 -24 -11 -8 -27 -14 -37 -14 -13 0
-18 -8 -18 -25 0 -14 -4 -25 -10 -25 -5 0 -10 9 -10 20 0 11 -6 23 -13 26 -14
5 -78 -7 -165 -32 l-53 -16 33 -21 c49 -33 70 -81 65 -147 -3 -30 -9 -64 -13
-75 -4 -11 34 18 84 64 51 46 92 79 92 73 0 -5 -21 -38 -47 -72 -27 -35 -52
-69 -58 -77 -7 -10 -5 -18 10 -29 25 -19 63 -13 159 25 l70 28 17 89 c9 49 18
121 20 159 4 67 3 70 -18 69 -12 0 -20 3 -17 8 7 10 -3 9 -41 -4z"/>
<path d="M2490 2674 c-14 -2 -44 -7 -67 -10 -25 -3 -56 -16 -74 -31 -29 -25
-31 -30 -27 -77 3 -28 14 -72 25 -98 l21 -46 79 -8 c84 -8 453 10 516 25 22 5
52 5 75 0 62 -15 431 -33 515 -25 l79 8 20 46 c11 26 23 69 26 95 4 40 1 52
-18 72 -44 47 -63 48 -620 51 -289 1 -536 0 -550 -2z"/>
<path d="M2000 2466 c35 -21 118 -48 133 -43 6 2 -19 14 -58 27 -98 32 -103
33 -75 16z"/>
<path d="M3940 2455 c-85 -32 -92 -36 -51 -30 33 5 146 53 126 54 -5 0 -39
-11 -75 -24z"/>
<path d="M2743 1570 c-41 -17 -56 -54 -51 -126 6 -91 22 -104 130 -104 70 0
82 3 103 25 22 21 25 33 25 90 0 60 -3 69 -29 96 -27 26 -36 29 -93 28 -35 0
-73 -4 -85 -9z"/>
<path d="M1600 1543 c-23 -20 -33 -40 -37 -70 l-6 -43 117 0 116 0 0 70 0 70
-80 0 c-73 0 -82 -2 -110 -27z"/>
<path d="M3523 1560 c-29 -12 -63 -67 -63 -102 l0 -28 115 0 115 0 0 70 0 70
-72 -1 c-40 0 -83 -4 -95 -9z"/>
<path d="M3543 1070 c-11 -28 -10 -30 14 -30 21 0 23 3 18 23 -12 36 -20 38
-32 7z"/>
</g>
</svg>
